Patient4_TMGait_0pt4_02_left_39_EMG.mot
version=1
nRows=19
nColumns=33
inDegrees=no
endheader
time	1LAddLong	2LGlutMax	3LGlutMed	4LIliopsoas	5LSemiMemb	6LBicFemLong	7LRecFem	8LVastMed	9LVastLat	10LGasMed	11LTibAnt	12lTibPost	13LPeroneusLong	14LSol	15LExtDigLong	16LFlexDigLong	17RAddLong	18RGlutMax	19RGlutMed	20RIliopsoas	21RSemiMemb	22RBicFemLong	23RRecFem	24RVastMed	25RVastLat	26RGasMed	27RTibAnt	28RTibPost	29RPeroneusLong	30RSol	31RExtDigLong	32RFlexDigLong
52.12	0.013885	-0.077667	-0.038452	0.011749	0.013885	0.011749	0.028839	-0.004425	-0.065918	-0.028534	-0.020447	-0.002899	-0.065918	-0.093079	0.18631	0.004425	0.015564	-0.000305	-0.61066	-0.014801	-0.002594	-0.025177	0.33783	-0.19028	-0.10315	-0.012207	0.1091	0.002441	0.75073	0.17822	-0.001221	-0.005035
52.121	0.011902	-0.07309	-0.057983	0.015717	0.001373	0.013123	0.045624	-0.00061	-0.072327	-0.037842	-0.024261	-0.002136	-0.033722	-0.061646	-0.028076	-0.000305	0.000916	-0.032654	0.15961	-0.1001	0.014038	0.003357	0.23468	-0.12894	-0.089569	-0.012817	0.10819	0.009613	0.76141	0.12634	-0.002289	-0.002899
52.122	0.000153	-0.066376	-0.04364	0.002747	-0.03006	-0.00824	0.0383	0.00351	-0.07309	-0.02121	-0.009308	-0.008392	0.028534	-0.070801	-0.086517	-0.000458	-0.016022	0.10849	0.11124	-0.15305	0.013733	0.050354	-0.007324	0.1294	0.019073	0.000305	-0.22064	0.00473	0.59174	-0.11505	-0.009003	0
52.123	0.009155	-0.051117	-0.031433	0.006866	-0.028534	-0.017853	0.02655	-0.000458	-0.070801	-0.018921	0.003204	-0.016022	0.079651	-0.087738	-0.089722	-0.006256	-0.007477	0.24368	-0.3598	-0.13351	0.003204	0.11871	-0.13382	0.10849	0.077667	0.003967	-0.3154	0.001526	0.027618	-0.14816	-0.001984	0.00061
52.124	0.005798	-0.045624	-0.064087	0.005341	-0.016785	-0.00946	0.030365	-0.001678	-0.068054	-0.007629	-0.013123	-0.003662	0.084381	-0.063324	-0.015259	-0.004578	-0.015717	0.027008	-0.22507	-0.050964	-0.000305	0.2034	-0.28473	0.10269	0.22186	-0.014038	-0.055389	-0.001068	-1.4761	0.017395	0.000763	-0.005798
52.125	0.010071	-0.030365	-0.091553	-0.001526	-0.012817	-0.030518	0.028229	-0.000458	-0.079041	-0.007477	-0.016632	-0.005188	0.045166	-0.051117	-0.003815	-0.001984	-0.016327	-0.089569	-0.082397	0.16403	0.001526	0.4599	-0.22018	0.090179	0.14236	-0.017242	0.089874	-0.000153	-0.95352	0.072937	-0.001678	-0.008087
52.126	0.01236	-0.012054	-0.067596	-0.003662	-0.009003	-0.005798	0.022278	0.001678	-0.067444	-0.005035	0.034027	-0.009155	0.044861	-0.056458	0.011902	-0.006409	-0.006256	-0.02533	-0.10498	0.29633	0.00885	0.56015	-0.24368	0.19028	0.13077	-0.009613	0.009766	-0.003052	1.259	0.13901	-0.003815	-0.010376
52.127	0.012054	-0.019836	-0.03891	0.015564	-0.010071	0.001221	0.032959	0.001984	-0.059662	-0.00412	0.075989	-0.014191	0.036316	-0.05249	0.055542	-0.000153	-0.023651	0.053558	-0.10849	0.21118	0.009918	0.47623	-0.19333	0.21744	0.13397	-0.00824	-0.16022	-0.004425	1.0617	0.10101	-0.004578	0.001068
52.128	0.00824	0.002594	-0.059052	0.011292	-0.002594	0.016174	0.02655	-0.004272	-0.051727	-0.00351	0.066376	-0.015106	0.02121	-0.041962	0.066223	0.016479	-0.018005	0.006409	-0.21683	0.093842	0.005646	0.24948	-0.00351	0.12863	0.13519	0.000763	-0.15717	0.009613	-0.41855	-0.081635	-0.003052	-0.000916
52.129	0.007629	0.015869	-0.055847	0.00824	-0.007629	0.003815	0.023193	0.002594	-0.0354	0.002136	0.007935	-0.010834	0.014954	-0.036316	0.06424	0.011597	-0.020142	-0.010529	0.16449	0.061646	0.004883	-0.028534	-0.027618	0.071106	0.11185	-0.000763	0.084534	0.000763	-1.8103	-0.026398	-0.003052	-0.006409
52.13	0.005798	0.003357	-0.013885	0.005493	-0.011597	-0.028534	0.016479	-0.003204	-0.04303	-0.008545	-0.032043	-0.016479	0.003204	-0.012512	0.084686	-0.001221	-0.007019	0.0383	0.76996	0.067902	0.009003	-0.32867	-0.055847	0.030823	0.07019	-0.008545	-0.086365	-0.002899	0.52963	0.047455	-0.00061	-0.005951
52.131	-0.006714	0.011749	0.019989	0.006714	-0.021973	-0.012665	0.026398	0.005035	-0.032806	-0.008698	-0.035858	-0.006561	0.02182	-0.000153	0.080872	0.006561	-0.012054	-0.054779	0.52856	0.028687	0.002899	-0.48599	-0.002594	-0.027618	0.13825	-0.015564	-0.11688	-0.000763	0.57709	-0.018768	0.000153	-0.005341
52.132	0.003815	0.02243	0.027008	0.007172	-0.030518	-0.029602	0.032806	0.005188	-0.032806	-0.018311	-0.036469	0.00412	0.048523	0.011749	0.036774	0.003204	-0.001678	-0.26337	0.51987	-0.13107	-0.002747	-0.64224	0.11993	-0.055695	0.13992	-0.008087	0.007019	-0.006256	0.089111	0.038605	-0.001984	-0.007019
52.133	-0.006714	0.007782	-0.025024	0.003052	-0.047302	-0.029755	0.016174	-0.006561	-0.032501	-0.029297	0.049133	-0.005951	0.04425	0.041809	0.010376	0.009766	-0.017548	-0.24674	-0.063629	-0.081024	-0.008698	-0.44373	0.14694	-0.026703	0.04776	-0.011902	0.016479	0.000153	-0.21805	0.037842	-0.001373	0.009155
52.134	-0.000153	0.07309	-0.095978	0.011597	-0.042114	-0.010681	0.018463	-0.003662	-0.043488	-0.017395	0.1561	-0.006561	0.0177	0.034485	-0.043182	-0.013428	-0.00061	-0.14679	-0.1445	-0.044098	-0.035553	-0.20233	0.11871	-0.002594	-0.10223	-0.020142	0.009155	-0.000458	-1.6374	0.04303	-0.000458	-0.000763
52.135	0.012054	0.092163	-0.036163	0.00824	-0.039825	-0.021667	0.018311	0.00351	-0.053406	-0.021973	0.093536	-0.009155	0.006866	-0.0177	-0.12573	-0.003967	0.001221	-0.076141	0.52322	-0.10056	-0.028534	-0.022888	0.052032	0.039063	-0.079193	-0.019379	-0.015564	0.000305	-0.88303	-0.10254	0.011444	0.000153
52.136	0.006409	0.079041	0.12009	0.001068	-0.045471	-0.030365	0.023193	-0.000458	-0.04776	-0.030365	0.020447	-0.006561	0.022736	-0.029602	-0.11887	0.007477	0.001984	-0.018005	0.37415	-0.073853	-0.024872	0.013123	0.005798	0.17395	-0.058441	-0.023651	0.045319	-0.007477	0.84686	0.07019	-0.003967	-0.00351
52.137	0.019379	0.044708	0.096588	0.006256	-0.021667	-0.055847	0.020752	-0.001373	-0.066681	-0.026703	0.030212	-0.006256	0.032654	-0.078278	-0.044098	0.004272	-0.015106	0.001526	0.16632	-0.022736	0.010681	0.026245	-0.072021	0.28305	-0.1561	-0.033569	0.10773	-0.001068	0.84473	-0.027161	-0.002441	-0.00412
52.138	0.011749	0.034637	0.066071	0.007629	0.063171	-0.049896	0.030365	-0.001221	-0.05722	-0.041504	0.027008	-0.005493	0.061493	-0.09491	0.059967	0.010986	0.001678	-0.052032	-0.08194	0.088043	0.05722	0.020599	-0.1181	0.14832	-0.25009	-0.015564	0.057526	0.002441	-1.032	0.007324	-0.001221	-0.009766
